<?xml version="1.0" encoding="utf-8"?>
<!-- Generator: Adobe Illustrator 21.0.2, SVG Export Plug-In . SVG Version: 6.00 Build 0)  -->
<svg version="1.1" id="Layer_1" xmlns="http://www.w3.org/2000/svg" xmlns:xlink="http://www.w3.org/1999/xlink" x="0px" y="0px"
	 viewBox="0 0 25 25" style="enable-background:new 0 0 25 25;" xml:space="preserve">
<g>
	<path d="M12.5,3.1c-5.2,0-9.4,4.2-9.4,9.4c0,5.2,4.2,9.4,9.4,9.4c5.2,0,9.4-4.2,9.4-9.4C21.9,7.3,17.7,3.1,12.5,3.1z M12.5,21.1
		c-4.8,0-8.6-3.9-8.6-8.6s3.9-8.6,8.6-8.6s8.6,3.9,8.6,8.6S17.3,21.1,12.5,21.1z"/>
	<path d="M17,12.1h-4.1V8c0-0.2-0.2-0.4-0.4-0.4S12.1,7.8,12.1,8v4.1H8c-0.2,0-0.4,0.2-0.4,0.4s0.2,0.4,0.4,0.4h4.1V17
		c0,0.2,0.2,0.4,0.4,0.4s0.4-0.2,0.4-0.4v-4.1H17c0.2,0,0.4-0.2,0.4-0.4S17.2,12.1,17,12.1z"/>
</g>
</svg>
