<?xml version="1.0" encoding="utf-8"?>
<!-- Generator: Adobe Illustrator 21.0.2, SVG Export Plug-In . SVG Version: 6.00 Build 0)  -->
<svg version="1.1" id="Layer_1" xmlns="http://www.w3.org/2000/svg" xmlns:xlink="http://www.w3.org/1999/xlink" x="0px" y="0px"
	 viewBox="0 0 25 25" style="enable-background:new 0 0 25 25;" xml:space="preserve">
<g>
	<path d="M12.5,21.9c-5.2,0-9.4-4.2-9.4-9.4c0-5.2,4.2-9.4,9.4-9.4c5.2,0,9.4,4.2,9.4,9.4C21.9,17.7,17.7,21.9,12.5,21.9z M12.5,3.9
		c-4.8,0-8.6,3.9-8.6,8.6s3.9,8.6,8.6,8.6s8.6-3.9,8.6-8.6S17.3,3.9,12.5,3.9z"/>
</g>
<g>
	<path d="M11.1,16c-0.1,0-0.2,0-0.3-0.1l-2.7-2.7c-0.1-0.1-0.1-0.4,0-0.5s0.4-0.1,0.5,0l2.4,2.4l5.1-6c0.1-0.2,0.4-0.2,0.5,0
		c0.2,0.1,0.2,0.4,0,0.5l-5.4,6.3C11.4,16,11.3,16,11.1,16C11.2,16,11.2,16,11.1,16z"/>
</g>
</svg>
