<?xml version="1.0" encoding="utf-8"?>
<!-- Generator: Adobe Illustrator 21.0.2, SVG Export Plug-In . SVG Version: 6.00 Build 0)  -->
<svg version="1.1" id="Layer_1" xmlns="http://www.w3.org/2000/svg" xmlns:xlink="http://www.w3.org/1999/xlink" x="0px" y="0px"
	 viewBox="0 0 25 25" style="enable-background:new 0 0 25 25;" xml:space="preserve">
<g>
	<path d="M20.2,5.6h-3.5V4c0-0.5-0.4-0.9-0.9-0.9H9.1C8.7,3.1,8.3,3.5,8.3,4v1.6H4.8C4.6,5.6,4.4,5.8,4.4,6s0.2,0.4,0.4,0.4h0.9
		l1.5,14.2c0.1,0.7,0.7,1.3,1.4,1.3h7.6c0.7,0,1.3-0.6,1.4-1.3l1.5-14.2h0.9c0.2,0,0.4-0.2,0.4-0.4S20.4,5.6,20.2,5.6z M9,4
		c0-0.1,0.1-0.1,0.1-0.1h6.7C15.9,3.9,16,3.9,16,4v1.6H9V4z M17,20.5c0,0.4-0.3,0.6-0.7,0.6H8.7c-0.3,0-0.6-0.3-0.7-0.6L6.5,6.4h12
		L17,20.5z"/>
	<path d="M10.1,9.5c-0.2,0-0.4,0.2-0.4,0.4l0.3,7.6c0,0.2,0.2,0.4,0.4,0.4c0,0,0,0,0,0c0.2,0,0.4-0.2,0.4-0.4l-0.3-7.6
		C10.5,9.6,10.3,9.5,10.1,9.5z"/>
	<path d="M12.5,9.5c-0.2,0-0.4,0.2-0.4,0.4v7.6c0,0.2,0.2,0.4,0.4,0.4s0.4-0.2,0.4-0.4V9.9C12.9,9.7,12.7,9.5,12.5,9.5z"/>
	<path d="M14.9,9.5c-0.2,0-0.4,0.2-0.4,0.4l-0.3,7.6c0,0.2,0.2,0.4,0.4,0.4c0,0,0,0,0,0c0.2,0,0.4-0.2,0.4-0.4l0.3-7.6
		C15.2,9.7,15.1,9.5,14.9,9.5z"/>
</g>
</svg>
