<?xml version="1.0" encoding="utf-8"?>
<!-- Generator: Adobe Illustrator 21.0.2, SVG Export Plug-In . SVG Version: 6.00 Build 0)  -->
<svg version="1.1" id="Layer_1" xmlns="http://www.w3.org/2000/svg" xmlns:xlink="http://www.w3.org/1999/xlink" x="0px" y="0px"
	 viewBox="0 0 25 25" style="enable-background:new 0 0 25 25;" xml:space="preserve">
<g>
	<path d="M21.1,21c0,0.1-0.1,0.1-0.1,0.1H4c-0.1,0-0.1-0.1-0.1-0.1V4c0-0.1,0.1-0.1,0.1-0.1h6V3.1H4C3.5,3.1,3.1,3.5,3.1,4v17
		c0,0.5,0.4,0.9,0.9,0.9h17c0.5,0,0.9-0.4,0.9-0.9v-6h-0.8V21z"/>
	<path d="M22,10.1C22,10.1,21.9,10,21.8,10l-2.9-0.6V6.5c0-0.2-0.2-0.4-0.4-0.4h-2.9L15,3.2C15,3.1,14.9,3,14.9,3
		c-0.1-0.1-0.2-0.1-0.3,0l-1.9,0.6c-0.1,0-0.2,0.1-0.2,0.3L9.8,14.7c0,0.1,0,0.3,0.1,0.4c0.1,0.1,0.2,0.1,0.3,0.1c0,0,0.1,0,0.1,0
		l10.9-2.6c0.1,0,0.2-0.1,0.3-0.2l0.6-1.9C22.1,10.4,22.1,10.2,22,10.1z M20.8,11.9l-6.3,1.5c-0.3-0.6-0.6-1.2-1.1-1.8
		s-1.1-0.9-1.8-1.1l1.5-6.3l1.3-0.4l0.6,2.8c0,0.2,0.2,0.3,0.4,0.3h2.8v2.8c0,0.2,0.1,0.3,0.3,0.4l2.8,0.6L20.8,11.9z"/>
</g>
</svg>
