<?xml version="1.0" encoding="utf-8"?>
<!-- Generator: Adobe Illustrator 21.0.2, SVG Export Plug-In . SVG Version: 6.00 Build 0)  -->
<svg version="1.1" id="Layer_1" xmlns="http://www.w3.org/2000/svg" xmlns:xlink="http://www.w3.org/1999/xlink" x="0px" y="0px"
	 viewBox="0 0 30 30" style="enable-background:new 0 0 30 30;" xml:space="preserve">
<title>submit</title>
<g id="Layer_1_1_">
	<g>
		<path d="M15,2c7.2,0,13,5.8,13,13s-5.8,13-13,13S2,22.2,2,15S7.8,2,15,2 M15,0C6.7,0,0,6.7,0,15s6.7,15,15,15s15-6.7,15-15
			S23.3,0,15,0z"/>
	</g>
</g>
<g id="Layer_3">
	<g>
		<path d="M16.2,16.4H7.8c-0.6,0-1-0.4-1-1s0.4-1,1-1h8.5c0.6,0,1,0.4,1,1S16.8,16.4,16.2,16.4z"/>
	</g>
	<g>
		<path d="M17.5,21.1c-0.3,0-0.5-0.1-0.7-0.3c-0.4-0.4-0.4-1,0-1.4l4-4l-4-4c-0.4-0.4-0.4-1,0-1.4s1-0.4,1.4,0l4.7,4.7
			c0.2,0.2,0.3,0.4,0.3,0.7s-0.1,0.5-0.3,0.7l-4.7,4.7C18,21,17.8,21.1,17.5,21.1z"/>
	</g>
</g>
</svg>
