<?xml version="1.0" encoding="utf-8"?>
<!-- Generator: Adobe Illustrator 21.0.2, SVG Export Plug-In . SVG Version: 6.00 Build 0)  -->
<svg version="1.1" id="Layer_1" xmlns="http://www.w3.org/2000/svg" xmlns:xlink="http://www.w3.org/1999/xlink" x="0px" y="0px"
	 viewBox="0 0 25 25" style="enable-background:new 0 0 25 25;" xml:space="preserve">
<path d="M12.5,3.5c-5,0-9,4-9,9s4,9,9,9s9-4,9-9S17.5,3.5,12.5,3.5z M13,18.1h-1.4v-1.7H13V18.1z M12.8,13.3l-0.1,2h-0.9l-0.2-2.7
	l0.2-0.2c1.8-0.2,2.7-1,2.7-2.3c0-1.2-0.8-1.9-2-1.9c-0.9,0-1.6,0.4-2.3,1.1L9.9,9.5l-0.7-1l0.1-0.1c0.9-1,1.9-1.5,3.1-1.5
	c1.8,0,3.2,1.3,3.2,3.2C15.7,11.7,14.6,12.9,12.8,13.3z"/>
</svg>
