<?xml version="1.0" encoding="utf-8"?>
<!-- Generator: Adobe Illustrator 21.0.2, SVG Export Plug-In . SVG Version: 6.00 Build 0)  -->
<svg version="1.1" id="Layer_1" xmlns="http://www.w3.org/2000/svg" xmlns:xlink="http://www.w3.org/1999/xlink" x="0px" y="0px"
	 viewBox="0 0 25 25" style="enable-background:new 0 0 25 25;" xml:space="preserve">
<g>
	<path d="M19.5,7.5h-1.6c-0.6-2.5-2.8-4.3-5.4-4.3c-2.6,0-4.8,1.8-5.4,4.3H5.5C4.9,7.5,4.4,8,4.4,8.6v12.2c0,0.6,0.5,1.1,1.1,1.1h14
		c0.6,0,1.1-0.5,1.1-1.1V8.6C20.6,8,20.1,7.5,19.5,7.5z M12.5,3.9c2.2,0,4.1,1.5,4.6,3.6H7.9C8.4,5.4,10.3,3.9,12.5,3.9z M19.9,20.8
		c0,0.2-0.2,0.4-0.4,0.4h-14c-0.2,0-0.4-0.2-0.4-0.4V8.6c0-0.2,0.2-0.4,0.4-0.4h14c0.2,0,0.4,0.2,0.4,0.4V20.8z"/>
	<path d="M13.8,13.7c0.5-0.4,0.8-1,0.8-1.7c0-1.2-1-2.1-2.1-2.1s-2.1,1-2.1,2.1c0,0.7,0.3,1.3,0.8,1.7L10,18.3c0,0.1,0,0.2,0.1,0.3
		c0.1,0.1,0.2,0.1,0.3,0.1h4.2c0.1,0,0.2-0.1,0.3-0.1s0.1-0.2,0.1-0.3L13.8,13.7z M10.9,18l1.1-4.3c0-0.2,0-0.3-0.2-0.4
		c-0.4-0.3-0.7-0.7-0.7-1.2c0-0.8,0.6-1.4,1.4-1.4c0.8,0,1.4,0.6,1.4,1.4c0,0.5-0.3,0.9-0.7,1.2c-0.1,0.1-0.2,0.3-0.2,0.4l1.1,4.3
		H10.9z"/>
</g>
</svg>
