<?xml version="1.0" encoding="utf-8"?>
<!-- Generator: Adobe Illustrator 21.0.2, SVG Export Plug-In . SVG Version: 6.00 Build 0)  -->
<svg version="1.1" id="Layer_1" xmlns="http://www.w3.org/2000/svg" xmlns:xlink="http://www.w3.org/1999/xlink" x="0px" y="0px"
	 viewBox="0 0 25 25" style="enable-background:new 0 0 25 25;" xml:space="preserve">
<path d="M20.5,12.6c0-0.2-0.2-0.3-0.4-0.3c-0.2,0-0.3,0.2-0.3,0.4c0.6,3-0.8,6.1-3.5,7.6c-3.4,1.9-7.7,0.6-9.5-2.8
	c-0.9-1.6-1.1-3.5-0.6-5.3c0.4-1.3,1.1-2.3,2-3.2l-1,4.3c0,0.2,0,0.3,0.2,0.4c0.1,0.1,0.3,0.1,0.4,0l3.1-2.7l3.1,5
	c0.1,0.1,0.2,0.2,0.3,0.2c0,0,0,0,0,0c0.1,0,0.3-0.1,0.3-0.2l5.5-13c0.1-0.1,0-0.3-0.1-0.4s-0.2-0.2-0.4-0.1L3.5,5.8
	C3.3,5.8,3.2,6,3.2,6.1c0,0.2,0.1,0.3,0.2,0.4l4.4,1.9c-1.1,1-1.9,2.2-2.4,3.7c-0.6,2-0.3,4.1,0.7,5.9c1.4,2.6,4.1,4,6.8,4
	c1.3,0,2.5-0.3,3.7-1C19.7,19.4,21.3,15.9,20.5,12.6z M9.1,8.5l9-4.4l-9.9,8.4L9.1,8.5z M14.3,15.1l-2.9-4.7L19,4L14.3,15.1z
	 M17.6,3.7L8.9,8L4.8,6.3L17.6,3.7z"/>
</svg>
