<?xml version="1.0" encoding="utf-8"?>
<!-- Generator: Adobe Illustrator 21.0.2, SVG Export Plug-In . SVG Version: 6.00 Build 0)  -->
<svg version="1.1" id="Layer_1" xmlns="http://www.w3.org/2000/svg" xmlns:xlink="http://www.w3.org/1999/xlink" x="0px" y="0px"
	 viewBox="0 0 30 30" style="enable-background:new 0 0 30 30;" xml:space="preserve">
<title>search</title>
<path d="M27.3,25.9L20.4,19c1.5-1.6,2.3-3.9,2.3-6.2c0-5.4-4.4-9.9-9.9-9.9S3,7.4,3,12.8s4.4,9.9,9.9,9.9c2.3,0,4.4-0.8,6.1-2.1
	l6.9,6.9c0.2,0.2,0.5,0.3,0.7,0.3s0.5-0.2,0.7-0.3C27.8,26.9,27.8,26.3,27.3,25.9z M4.9,12.8c0-4.4,3.6-7.9,7.9-7.9s7.9,3.4,7.9,7.9
	s-3.4,7.9-7.9,7.9S4.9,17.1,4.9,12.8z"/>
</svg>
