<?xml version="1.0" encoding="utf-8"?>
<!-- Generator: Adobe Illustrator 21.0.2, SVG Export Plug-In . SVG Version: 6.00 Build 0)  -->
<svg version="1.1" id="Layer_1" xmlns="http://www.w3.org/2000/svg" xmlns:xlink="http://www.w3.org/1999/xlink" x="0px" y="0px"
	 viewBox="0 0 25 25" style="enable-background:new 0 0 25 25;" xml:space="preserve">
<g>
	<path d="M18.8,5H6.2L2.5,8.5l10,11.5l10-11.5L18.8,5z M12.7,14.8c-1.2,0-2.1-0.4-3.1-1.2l-0.2-0.2l0.7-0.8l0.2,0.2
		c0.8,0.7,1.5,1,2.4,1c0.9,0,1.6-0.5,1.6-1.2c0-0.5-0.1-1-1.8-1.3c-1.8-0.4-2.6-1-2.6-2.3c0-1.1,1.1-2,2.5-2c1,0,1.8,0.3,2.6,0.9
		L15.2,8l-0.7,0.8l-0.2-0.2c-0.6-0.5-1.2-0.7-2-0.7c-0.9,0-1.5,0.5-1.5,1.1c0,0.5,0.1,1,1.9,1.3c1.8,0.4,2.6,1,2.6,2.2
		C15.3,13.9,14.2,14.8,12.7,14.8z"/>
</g>
</svg>
