<?xml version="1.0" encoding="utf-8"?>
<!-- Generator: Adobe Illustrator 21.0.2, SVG Export Plug-In . SVG Version: 6.00 Build 0)  -->
<svg version="1.1" xmlns="http://www.w3.org/2000/svg" xmlns:xlink="http://www.w3.org/1999/xlink" x="0px" y="0px"
	 viewBox="0 0 60 60" style="enable-background:new 0 0 60 60;" xml:space="preserve">
<style type="text/css">
	.st0{display:none;}
	.st1{display:inline;}
	.st2{fill:#201042;}
	.st3{fill:#D91C5C;}
	.st4{display:inline;fill:none;stroke:#201042;stroke-miterlimit:10;}
	.st5{fill:none;stroke:#201042;stroke-width:0.5;stroke-miterlimit:10;}
	.st6{fill:none;stroke:#201042;stroke-miterlimit:10;}
	.st7{fill:none;stroke:#201042;stroke-miterlimit:10;stroke-dasharray:3.5037,3.5037;}
	.st8{fill:none;stroke:#201042;stroke-miterlimit:10;stroke-dasharray:3.2944,3.2944;}
	.st9{fill:none;stroke:#201042;stroke-miterlimit:10;stroke-dasharray:3.3598,3.3598;}
	.st10{fill:#FFFFFF;}
	.st11{fill:none;stroke:#FFFFFF;stroke-width:3;stroke-miterlimit:10;}
	.st12{fill:none;stroke:#D91C5C;stroke-miterlimit:10;}
</style>
<g id="Layer_1" class="st0">
	<g class="st1">
		<path class="st2" d="M34.5,30v-8.2c0-2.4-1.9-4.3-4.3-4.3h-0.3c-2.4,0-4.3,1.9-4.3,4.3V30H34.5z"/>
	</g>
	<g class="st1">
		<path class="st3" d="M25.5,30v8.2c0,2.4,1.9,4.3,4.3,4.3h0.3c2.4,0,4.3-1.9,4.3-4.3V30H25.5z"/>
	</g>
</g>
<g id="education" class="st0">
</g>
<g id="medication" class="st0">
	<path class="st4" d="M57,27.1L27.1,57c-1.4,1.4-3.7,1.4-5.1,0l-19-19c-1.4-1.4-1.4-3.7,0-5.1L32.9,3c1.4-1.4,3.7-1.4,5.1,0l19,19
		C58.3,23.5,58.3,25.8,57,27.1z"/>
	<g class="st1">
		<g>
			<path class="st2" d="M32.5,27.5l-5.2-5.2c-1.5-1.5-3.8-1.7-5.2-0.3L22,22.2c-1.3,1.3-1.2,3.7,0.3,5.2l5.2,5.2L32.5,27.5z"/>
		</g>
		<g>
			<path class="st3" d="M27.5,32.5l5.2,5.2c1.5,1.5,3.8,1.7,5.2,0.3l0.2-0.2c1.3-1.3,1.2-3.7-0.3-5.2l-5.2-5.2L27.5,32.5z"/>
		</g>
	</g>
	<g class="st1">
		<g>
			<path class="st2" d="M42,18l-5.2-5.2c-1.5-1.5-3.8-1.7-5.2-0.3l-0.2,0.2c-1.3,1.3-1.2,3.7,0.3,5.2L37,23L42,18z"/>
		</g>
		<g>
			<path class="st3" d="M37,23l5.2,5.2c1.5,1.5,3.8,1.7,5.2,0.3l0.2-0.2c1.3-1.3,1.2-3.7-0.3-5.2L42,18L37,23z"/>
		</g>
	</g>
	<g class="st1">
		<g>
			<path class="st2" d="M23,37l-5.2-5.2c-1.5-1.5-3.8-1.7-5.2-0.3l-0.2,0.2c-1.3,1.3-1.2,3.7,0.3,5.2L18,42L23,37z"/>
		</g>
		<g>
			<path class="st3" d="M18,42l5.2,5.2c1.5,1.5,3.8,1.7,5.2,0.3l0.2-0.2c1.3-1.3,1.2-3.7-0.3-5.2L23,37L18,42z"/>
		</g>
	</g>
</g>
<g id="referral" class="st0">
</g>
<g id="postdischarge" class="st0">
	<g id="Received_Message_Background_5_" class="st1">
		<path class="st2" d="M42.2,10.9c8,0,14.5,6.5,14.5,14.5v9.2c0,8-6.5,14.5-14.5,14.5H23.1c-3.3,0-6.4-1.1-9-3.1l-0.6-0.4L13,46
			c-2.2,1.4-4.6,2.3-7.2,2.8c1.8-1.9,2.8-4.4,2.8-7l0-16.3c0-8,6.5-14.5,14.5-14.5H42.2 M42.2,9.9H23.1c-8.6,0-15.5,6.9-15.5,15.5
			l0,16.3c0,3.7-2.2,6.9-5.3,8.4c4.1-0.1,8-1.3,11.3-3.3c2.6,2.1,6,3.3,9.6,3.3h19.1c8.6,0,15.5-6.9,15.5-15.5v-9.2
			C57.8,16.8,50.8,9.9,42.2,9.9L42.2,9.9z"/>
	</g>
	<g class="st1">
		<g>
			<circle class="st3" cx="22.8" cy="30" r="3"/>
		</g>
		<g>
			<circle class="st3" cx="32.8" cy="30" r="3"/>
		</g>
		<g>
			<circle class="st3" cx="42.8" cy="30" r="3"/>
		</g>
	</g>
</g>
<g id="analytics">
	<g>
		<path class="st5" d="M55,59H5c-2.2,0-4-1.8-4-4V5c0-2.2,1.8-4,4-4h50c2.2,0,4,1.8,4,4v50C59,57.2,57.2,59,55,59z"/>
		<line class="st5" x1="30" y1="1" x2="30" y2="59"/>
		<line class="st5" x1="15.5" y1="1" x2="15.5" y2="59"/>
		<line class="st5" x1="44.5" y1="1" x2="44.5" y2="59"/>
		<line class="st5" x1="59" y1="30" x2="1" y2="30"/>
		<line class="st5" x1="59" y1="15.5" x2="1" y2="15.5"/>
		<line class="st5" x1="59" y1="44.5" x2="1" y2="44.5"/>
	</g>
</g>
<g id="Layer_7">
	<g>
		<g>
			<line class="st6" x1="1.5" y1="44.5" x2="2.5" y2="43.4"/>
			<line class="st7" x1="4.9" y1="40.8" x2="13.3" y2="31.9"/>
			<polyline class="st6" points="14.5,30.6 15.5,29.5 16.5,30.6 			"/>
			<line class="st7" x1="18.9" y1="33.2" x2="27.3" y2="42.1"/>
			<polyline class="st6" points="28.5,43.4 29.5,44.5 30.2,43.2 			"/>
			<line class="st8" x1="31.7" y1="40.2" x2="43.1" y2="18.3"/>
			<polyline class="st6" points="43.8,16.8 44.5,15.5 45.6,16.6 			"/>
			<line class="st9" x1="47.9" y1="18.9" x2="56.3" y2="27.3"/>
			<line class="st6" x1="57.4" y1="28.4" x2="58.5" y2="29.5"/>
		</g>
	</g>
	<g>
		<circle class="st10" cx="15.5" cy="29.5" r="3"/>
		<circle class="st11" cx="15.5" cy="29.5" r="3"/>
		<circle class="st12" cx="15.5" cy="29.5" r="3"/>
	</g>
	<g>
		<circle class="st10" cx="44.5" cy="15.5" r="3"/>
		<circle class="st11" cx="44.5" cy="15.5" r="3"/>
		<circle class="st12" cx="44.5" cy="15.5" r="3"/>
	</g>
	<g>
		<circle class="st10" cx="30" cy="44.5" r="3"/>
		<circle class="st11" cx="30" cy="44.5" r="3"/>
		<circle class="st12" cx="30" cy="44.5" r="3"/>
	</g>
</g>
</svg>
