<?xml version="1.0" encoding="utf-8"?>
<!-- Generator: Adobe Illustrator 21.0.2, SVG Export Plug-In . SVG Version: 6.00 Build 0)  -->
<svg version="1.1" xmlns="http://www.w3.org/2000/svg" xmlns:xlink="http://www.w3.org/1999/xlink" x="0px" y="0px"
	 viewBox="0 0 60 60" style="enable-background:new 0 0 60 60;" xml:space="preserve">
<style type="text/css">
	.st0{display:none;}
	.st1{display:inline;}
	.st2{fill:#201042;}
	.st3{fill:#D91C5C;}
	.st4{display:inline;fill:none;stroke:#201042;stroke-linecap:round;stroke-linejoin:round;stroke-miterlimit:10;}
	.st5{display:inline;fill:#D91C5C;}
	.st6{display:inline;fill:none;stroke:#FFFFFF;stroke-linecap:round;stroke-linejoin:round;stroke-miterlimit:10;}
	.st7{display:inline;fill:none;stroke:#201042;stroke-miterlimit:10;}
	.st8{fill:#FFFFFF;stroke:#201042;stroke-miterlimit:10;}
	.st9{fill:none;stroke:#201042;stroke-linecap:round;stroke-miterlimit:10;}
	.st10{fill:none;stroke:#201042;stroke-width:0.5;stroke-miterlimit:10;}
	.st11{fill:none;stroke:#201042;stroke-width:0.5;stroke-miterlimit:10;stroke-dasharray:2.8824,2.8824;}
	.st12{fill:none;stroke:#FFFFFF;stroke-width:2;stroke-miterlimit:10;}
	.st13{fill:none;stroke:#201042;stroke-miterlimit:10;}
	.st14{fill:none;stroke:#201042;stroke-miterlimit:10;stroke-dasharray:3.5037,3.5037;}
	.st15{fill:none;stroke:#201042;stroke-miterlimit:10;stroke-dasharray:3.2944,3.2944;}
	.st16{fill:none;stroke:#201042;stroke-miterlimit:10;stroke-dasharray:3.3598,3.3598;}
	.st17{fill:#FFFFFF;}
	.st18{fill:none;stroke:#FFFFFF;stroke-width:3;stroke-miterlimit:10;}
	.st19{fill:none;stroke:#D91C5C;stroke-miterlimit:10;}
</style>
<g id="Layer_1" class="st0">
	<g class="st1">
		<path class="st2" d="M34.5,30v-8.2c0-2.4-1.9-4.3-4.3-4.3h-0.3c-2.4,0-4.3,1.9-4.3,4.3V30H34.5z"/>
	</g>
	<g class="st1">
		<path class="st3" d="M25.5,30v8.2c0,2.4,1.9,4.3,4.3,4.3h0.3c2.4,0,4.3-1.9,4.3-4.3V30H25.5z"/>
	</g>
</g>
<g id="education" class="st0">
	<path class="st4" d="M25.3,57c0,0-3.2-6.8-5.8-6.6c-2.6,0.2-7.9,1.2-7.9,0.5c0-0.7-0.9-6.1-1.4-6.5c-0.5-0.4-0.8-1.2-0.5-1.5
		s1-2.2,0.5-2.5c-0.5-0.4-1.7-0.6-1.6-1.1s0.9-3.2,0.6-3.8c-0.2-0.6-4.4-0.5-4.5-0.9s4.9-10.4,5.3-13.1C10.3,18.8,11.9,3,32.1,3
		c17.6,0,22.4,11.7,22.4,22.1c0,10.5-9.8,9-9.8,31.5"/>
	<path class="st5" d="M27.8,28.4c-0.4,0.2-2.1,1.2-2.4,1.2c-0.4,0-2.9-2.1-3.6-2.2c-0.6-0.2-1.1,0.2-1.9,0.4
		c-0.8,0.1-1.6-0.9-1.8-1.4c-0.2-0.5-0.8-1.8-1.1-1.8c-0.3-0.1-1.8-1.4-1.4-1.8c0.4-0.5-0.6-2.5-0.4-3c0.2-0.5,0.6-2.9,1.3-3.4
		c0.7-0.5,1.7-1.4,1.8-2.5c0.1-1.1,0.2-2.4,0.8-2.9c0.6-0.5,3.6-1.2,4.1-1.8s1.7-1.9,2.5-1.9s2.6-0.6,3.6-1.1c1-0.5,2.1-0.2,2.4,0
		s1.4,1.2,1.8,1.1c0.5-0.1,1.6-1,2.4-0.6c0.5,0.2,1.3,1.6,1.9,1.8c0.6,0.1,2.3-0.3,2.9,0.4c0.6,0.6,2.2,1.7,3.1,2.1
		c0.9,0.4,1.1,2,2.3,2.3c1.2,0.3,4.5,4.2,4.2,5.2c-0.3,1,0.2,3.6,0.4,3.9c0.2,0.3-0.7,2.6-0.7,3.2s0.4,1.8-0.2,2.5
		c-0.6,0.8-0.5,3.2-1.3,3.8c-1,0.7-2.9,0.7-3.2,1.2c-0.3,0.5-1.4,3.2-2.9,3.1c-2.3-0.1-4.3-3.8-4.9-3.7c-1.1,0.1-1.5-1.3-1.8-2
		s-1.1-1.6-2-1.1c-0.9,0.5-2.5,1.7-2.9,1.6S28.4,28,27.8,28.4z"/>
	<polyline class="st6" points="26.8,19.3 30.2,22.4 38,14.6 	"/>
</g>
<g id="medication" class="st0">
	<path class="st7" d="M57,27.1L27.1,57c-1.4,1.4-3.7,1.4-5.1,0l-19-19c-1.4-1.4-1.4-3.7,0-5.1L32.9,3c1.4-1.4,3.7-1.4,5.1,0l19,19
		C58.3,23.5,58.3,25.8,57,27.1z"/>
	<g class="st1">
		<g>
			<path class="st2" d="M32.5,27.5l-5.2-5.2c-1.5-1.5-3.8-1.7-5.2-0.3L22,22.2c-1.3,1.3-1.2,3.7,0.3,5.2l5.2,5.2L32.5,27.5z"/>
		</g>
		<g>
			<path class="st3" d="M27.5,32.5l5.2,5.2c1.5,1.5,3.8,1.7,5.2,0.3l0.2-0.2c1.3-1.3,1.2-3.7-0.3-5.2l-5.2-5.2L27.5,32.5z"/>
		</g>
	</g>
	<g class="st1">
		<g>
			<path class="st2" d="M42,18l-5.2-5.2c-1.5-1.5-3.8-1.7-5.2-0.3l-0.2,0.2c-1.3,1.3-1.2,3.7,0.3,5.2L37,23L42,18z"/>
		</g>
		<g>
			<path class="st3" d="M37,23l5.2,5.2c1.5,1.5,3.8,1.7,5.2,0.3l0.2-0.2c1.3-1.3,1.2-3.7-0.3-5.2L42,18L37,23z"/>
		</g>
	</g>
	<g class="st1">
		<g>
			<path class="st2" d="M23,37l-5.2-5.2c-1.5-1.5-3.8-1.7-5.2-0.3l-0.2,0.2c-1.3,1.3-1.2,3.7,0.3,5.2L18,42L23,37z"/>
		</g>
		<g>
			<path class="st3" d="M18,42l5.2,5.2c1.5,1.5,3.8,1.7,5.2,0.3l0.2-0.2c1.3-1.3,1.2-3.7-0.3-5.2L23,37L18,42z"/>
		</g>
	</g>
</g>
<g id="referral">
	<polygon class="st8" points="59,7 39.7,1.5 39.7,1.5 39.7,1.5 39.7,1.5 39.7,1.5 20.3,7 1,1.5 1,53 20.3,58.5 39.7,53 59,58.5 	"/>
	<path class="st9" d="M12.5,30.5c0,0,8,13,35,11"/>
	<g>
		<g>
			<line class="st10" x1="20.5" y1="6.5" x2="20.5" y2="8"/>
			<line class="st11" x1="20.5" y1="10.9" x2="20.5" y2="55.6"/>
			<line class="st10" x1="20.5" y1="57" x2="20.5" y2="58.5"/>
		</g>
	</g>
	<g>
		<g>
			<line class="st10" x1="39.5" y1="1.5" x2="39.5" y2="3"/>
			<line class="st11" x1="39.5" y1="5.9" x2="39.5" y2="50.6"/>
			<line class="st10" x1="39.5" y1="52" x2="39.5" y2="53.5"/>
		</g>
	</g>
	<g>
		<path class="st3" d="M17.8,17.8c0,3.2-5.8,11.7-5.8,11.7s-5.8-8.4-5.8-11.7S8.8,12,12,12S17.8,14.6,17.8,17.8z"/>
		<g>
			<line class="st12" x1="12" y1="15" x2="12" y2="21"/>
			<line class="st12" x1="15" y1="18" x2="9" y2="18"/>
		</g>
	</g>
	<g>
		<path class="st3" d="M54.8,29.8c0,3.2-5.8,11.7-5.8,11.7s-5.8-8.4-5.8-11.7c0-3.2,2.6-5.8,5.8-5.8S54.8,26.6,54.8,29.8z"/>
		<g>
			<line class="st12" x1="49" y1="27" x2="49" y2="33"/>
			<line class="st12" x1="52" y1="30" x2="46" y2="30"/>
		</g>
	</g>
</g>
<g id="postdischarge" class="st0">
	<g id="Received_Message_Background_5_" class="st1">
		<path class="st2" d="M42.2,10.9c8,0,14.5,6.5,14.5,14.5v9.2c0,8-6.5,14.5-14.5,14.5H23.1c-3.3,0-6.4-1.1-9-3.1l-0.6-0.4L13,46
			c-2.2,1.4-4.6,2.3-7.2,2.8c1.8-1.9,2.8-4.4,2.8-7l0-16.3c0-8,6.5-14.5,14.5-14.5H42.2 M42.2,9.9H23.1c-8.6,0-15.5,6.9-15.5,15.5
			l0,16.3c0,3.7-2.2,6.9-5.3,8.4c4.1-0.1,8-1.3,11.3-3.3c2.6,2.1,6,3.3,9.6,3.3h19.1c8.6,0,15.5-6.9,15.5-15.5v-9.2
			C57.8,16.8,50.8,9.9,42.2,9.9L42.2,9.9z"/>
	</g>
	<g class="st1">
		<g>
			<circle class="st3" cx="22.8" cy="30" r="3"/>
		</g>
		<g>
			<circle class="st3" cx="32.8" cy="30" r="3"/>
		</g>
		<g>
			<circle class="st3" cx="42.8" cy="30" r="3"/>
		</g>
	</g>
</g>
<g id="analytics" class="st0">
	<g class="st1">
		<path class="st10" d="M55,59H5c-2.2,0-4-1.8-4-4V5c0-2.2,1.8-4,4-4h50c2.2,0,4,1.8,4,4v50C59,57.2,57.2,59,55,59z"/>
		<line class="st10" x1="30" y1="1" x2="30" y2="59"/>
		<line class="st10" x1="15.5" y1="1" x2="15.5" y2="59"/>
		<line class="st10" x1="44.5" y1="1" x2="44.5" y2="59"/>
		<line class="st10" x1="59" y1="30" x2="1" y2="30"/>
		<line class="st10" x1="59" y1="15.5" x2="1" y2="15.5"/>
		<line class="st10" x1="59" y1="44.5" x2="1" y2="44.5"/>
	</g>
	<g class="st1">
		<g>
			<line class="st13" x1="1.5" y1="44.5" x2="2.5" y2="43.4"/>
			<line class="st14" x1="4.9" y1="40.8" x2="13.3" y2="31.9"/>
			<polyline class="st13" points="14.5,30.6 15.5,29.5 16.5,30.6 			"/>
			<line class="st14" x1="18.9" y1="33.2" x2="27.3" y2="42.1"/>
			<polyline class="st13" points="28.5,43.4 29.5,44.5 30.2,43.2 			"/>
			<line class="st15" x1="31.7" y1="40.2" x2="43.1" y2="18.3"/>
			<polyline class="st13" points="43.8,16.8 44.5,15.5 45.6,16.6 			"/>
			<line class="st16" x1="47.9" y1="18.9" x2="56.3" y2="27.3"/>
			<line class="st13" x1="57.4" y1="28.4" x2="58.5" y2="29.5"/>
		</g>
	</g>
	<g class="st1">
		<circle class="st17" cx="15.5" cy="29.5" r="3"/>
		<circle class="st18" cx="15.5" cy="29.5" r="3"/>
		<circle class="st19" cx="15.5" cy="29.5" r="3"/>
	</g>
	<g class="st1">
		<circle class="st17" cx="44.5" cy="15.5" r="3"/>
		<circle class="st18" cx="44.5" cy="15.5" r="3"/>
		<circle class="st19" cx="44.5" cy="15.5" r="3"/>
	</g>
	<g class="st1">
		<circle class="st17" cx="30" cy="44.5" r="3"/>
		<circle class="st18" cx="30" cy="44.5" r="3"/>
		<circle class="st19" cx="30" cy="44.5" r="3"/>
	</g>
</g>
</svg>
