<?xml version="1.0" encoding="utf-8"?>
<!-- Generator: Adobe Illustrator 21.0.2, SVG Export Plug-In . SVG Version: 6.00 Build 0)  -->
<svg version="1.1" id="Layer_1" xmlns="http://www.w3.org/2000/svg" xmlns:xlink="http://www.w3.org/1999/xlink" x="0px" y="0px"
	 viewBox="0 0 80 80" style="enable-background:new 0 0 80 80;" xml:space="preserve">
<style type="text/css">
	.st0{fill:#FFFFFF;}
</style>
<path class="st0" d="M14.9,35.6C14.9,35.6,14.9,35.6,14.9,35.6C14.9,35.6,14.9,35.6,14.9,35.6 M3.5,28L3.5,28L3.5,28 M44.7,8.1
	C44.7,8.1,44.7,8.1,44.7,8.1l0.2,0c0.2,0,0.3,0,0.5,0c0.6,0,1.3,0.1,1.9,0.2c1.3,0.2,2.6,0.5,3.9,1c1.3,0.5,2.5,1.1,3.6,1.9
	c1.1,0.8,2.1,1.7,3,2.8l0.2,0.2l0.1,0.2c0,0.1,0.1,0.1,0.1,0.2l0.2,0.3l0.1,0.1c0,0,0,0,0,0l0,0l0.1,0.2c0.1,0.1,0.2,0.3,0.3,0.4
	c0.3,0.6,0.7,1.2,0.9,1.9c0.5,1.3,0.8,2.7,0.9,4.1c0,0.2,0,0.3,0,0.5c0,0.2,0,0.3,0,0.5c0,0.2,0,0.4,0,0.5l0,0.2c0,0.1,0,0.1,0,0.3
	c-0.1,0.8-0.3,1.6-0.5,2.3c-0.1,0.4-0.3,0.8-0.4,1.1c0,0.1-0.1,0.2-0.1,0.3c-1.5-0.8-3.1-1.6-4.7-2.3l-0.8-0.4l-0.8-0.3l-0.7-0.3
	l-0.8-0.3l-0.8-0.3l-0.8-0.3c-0.5-0.2-1.1-0.4-1.6-0.6c-2.2-0.8-4.4-1.5-6.7-2.1c-4.6-1.2-9.4-2-14.4-2.2c-0.2,0-0.4,0-0.7,0
	c0.2-0.3,0.4-0.7,0.6-1c0.9-1.5,2.1-3,3.6-4.4c1.5-1.4,3.3-2.5,5.4-3.4c1.1-0.4,2.2-0.8,3.4-1c0.3-0.1,0.6-0.1,0.9-0.2
	c0.3,0,0.6-0.1,0.9-0.1c0.3,0,0.6-0.1,0.9-0.1c0.3,0,0.6,0,0.9,0c0.4,0,0.8,0,1.1,0L44.7,8.1L44.7,8.1C44.6,8.1,44.6,8.1,44.7,8.1
	C44.6,8.1,44.6,8.1,44.7,8.1 M45.5,0c-0.2,0-0.5,0-0.7,0l-0.3,0c-0.2,0-0.1,0-0.2,0l-0.1,0l-0.1,0c-0.4,0-0.8,0.1-1.2,0.1
	c-0.5,0.1-0.9,0.1-1.4,0.2c-0.4,0.1-0.9,0.1-1.3,0.2c-0.4,0.1-0.8,0.2-1.3,0.3c-0.4,0.1-0.8,0.2-1.2,0.3c-1.6,0.5-3.2,1.1-4.6,1.8
	c-1.4,0.7-2.7,1.6-3.9,2.6c-1.2,1-2.2,2-3.1,3c-0.9,1.1-1.6,2.1-2.3,3.2c-0.6,1.1-1.1,2.1-1.6,3.1c-0.5,1.3-1,2.6-1.3,3.7
	c-0.5,0.1-1.1,0.1-1.6,0.2c-2.7,0.4-5.7,1.1-8.6,2.6c-1.5,0.8-2.9,1.7-4.2,2.9c-0.7,0.6-1.3,1.3-1.9,1.9c-0.3,0.4-0.6,0.7-0.8,1.1
	l-0.2,0.3l-0.1,0.1c0,0,0,0-0.1,0.1c0,0.1-0.1,0.1-0.1,0.1l-0.2,0.4l-0.2,0.3L2.9,29c-0.1,0.3-0.2,0.5-0.3,0.7
	c-0.2,0.4-0.4,0.8-0.5,1.3c-0.3,0.9-0.6,1.7-0.7,2.6C1,35.3,1,37.1,1.3,38.9c0.3,1.7,0.8,3.4,1.6,4.9c0.8,1.5,1.8,2.9,3,4.1
	C6.4,48.4,7,49,7.7,49.4c0.2,0.1,0.3,0.2,0.5,0.4l0.1,0.1c0,0,0.2,0.1,0.2,0.1l0.2,0.1l0.2,0.1l0.3,0.2c0.2,0.1,0.4,0.2,0.5,0.3
	c1.3,0.7,2.7,1.2,4,1.6c2.7,0.8,5.2,1.1,7.7,1.3c1.3,0.1,2.5,0.1,3.7,0.1c0.6,0,1.2-0.1,1.9-0.1c0.6-0.1,1.1-0.1,1.7-0.2l0.9-0.1
	l0.9-0.1c0.6-0.1,1.2-0.2,1.7-0.3c1.1-0.2,2.3-0.4,3.4-0.7c2.3-0.5,4.5-1.1,6.6-1.9c4.1-1.4,8.1-3.2,11.8-5.5c-2-1.5-5-3-6.9-3.9
	c-5.6,3.3-12.3,5.4-19.1,6c-0.5,0-1.1,0.1-1.6,0.1c-0.4,0-1,0-1.5,0c-1,0-2-0.1-2.9-0.2c-1.9-0.3-3.7-1-5.2-2
	c-0.7-0.5-1.4-1.1-1.9-1.7c-0.5-0.6-0.8-1.2-1-1.8c-0.4-1.2-0.4-2.4-0.2-3.4c0.1-0.5,0.3-1,0.4-1.4c0.1-0.2,0.2-0.4,0.3-0.6
	c0.1-0.1,0.1-0.2,0.2-0.3c0,0,0.1-0.1,0.1-0.1c0,0,0,0,0-0.1l0.2-0.4c0,0,0,0,0,0.1c0,0.1-0.1,0.1,0,0l0,0l0.1-0.1
	c0.1-0.1,0.1-0.2,0.2-0.3c0.1-0.2,0.3-0.3,0.5-0.5c0.3-0.3,0.8-0.6,1.3-0.9c1.1-0.5,2.5-0.9,4.2-1.1c1.7-0.2,3.5-0.2,5.4-0.2
	c3.8,0.2,7.7,0.8,11.5,1.8c8.9,2.3,18.6,6.1,24.6,13.4C65,50,66,53,65.3,56.2c-0.4,2.3-1.6,4.5-3.1,6.3c-1.5,1.8-3.4,3.2-5.4,4
	c-0.2,0.1-0.5,0.2-0.7,0.3l-0.3,0.1c-0.2,0.1-0.4,0.1-0.5,0.2c-0.3,0.1-0.5,0.1-0.8,0.2c-0.3,0.1-0.6,0.1-0.8,0.2
	c-1.1,0.2-2.2,0.4-3.3,0.5c-2.2,0.2-4.4,0.1-6.3-0.2c-1-0.1-1.9-0.3-2.8-0.5c-0.9-0.2-1.7-0.4-2.5-0.7c-3.2-1-5.5-2.3-7-3.2
	c-0.4-0.2-0.7-0.5-1-0.6c-0.1-0.1-0.2-0.2-0.3-0.2c-0.1,0-0.1-0.1-0.2-0.1c0,0-0.1-0.1-0.2-0.1c-0.4-0.3-0.7-0.5-0.7-0.5
	c-1.9-1.4-4.6-1.3-6.3,0.4c-1.9,1.9-1.9,4.9,0,6.8c0,0,0.2,0.2,0.6,0.6c0.1,0.1,0.1,0.1,0.2,0.2c0.1,0.1,0.1,0.1,0.2,0.2
	c0.2,0.1,0.3,0.3,0.5,0.5c0.4,0.3,0.8,0.7,1.2,1.1c0.9,0.8,2.2,1.7,3.7,2.6c1.5,0.9,3.3,1.9,5.4,2.8c2.1,0.9,4.5,1.7,7.1,2.3
	c2.7,0.6,5.7,1,8.9,0.9c1.6,0,3.3-0.2,5.1-0.4c0.4-0.1,0.9-0.2,1.3-0.2c0.2,0,0.4-0.1,0.7-0.1l0.3-0.1l0.2,0l0.1,0l0.2,0
	c0.2,0,0.4-0.1,0.6-0.1c0.3-0.1,0.5-0.2,0.8-0.2c0.5-0.2,0.9-0.3,1.4-0.5c3.8-1.4,7.3-3.8,10.3-7c3-3.2,5.4-7.3,6.5-12.1
	c0.6-2.4,0.8-5,0.5-7.7c-0.3-2.6-1-5.3-2.2-7.7c-0.6-1.2-1.3-2.4-2.1-3.5l-0.3-0.4l-0.3-0.4l-0.1-0.1L73.6,39l-0.2-0.3l-0.5-0.6
	l-0.1-0.1L72.7,38l-0.2-0.2l-0.3-0.4l-0.6-0.7L71,36.1c-0.4-0.4-0.8-0.8-1.3-1.3C68.9,34,68,33.2,67,32.4c-0.2-0.2-0.4-0.3-0.6-0.5
	c0,0,0,0,0,0c0.3-0.5,0.5-1,0.8-1.6c0.3-0.6,0.5-1.1,0.7-1.6c0.4-1.1,0.7-2.2,1-3.4c0-0.1,0.1-0.3,0.1-0.5l0.1-0.5
	c0.1-0.4,0.1-0.6,0.1-1c0-0.3,0.1-0.6,0.1-0.9c0-0.3,0-0.6,0-0.9c0-2.5-0.5-4.9-1.3-7.1c-0.4-1.1-0.9-2.2-1.5-3.2
	c-0.1-0.3-0.3-0.5-0.5-0.7l-0.2-0.4l-0.1-0.1L65.6,10l-0.1-0.1l-0.2-0.3L65,9.2l-0.3-0.4l-0.3-0.3c-1.4-1.8-3.1-3.2-4.9-4.4
	C57.8,2.9,55.9,2,54,1.4c-1.9-0.7-3.8-1.1-5.7-1.3C47.4,0,46.5,0,45.6,0C45.6,0,45.5,0,45.5,0"/>
</svg>
