<?xml version="1.0" encoding="utf-8"?>
<!-- Generator: Adobe Illustrator 21.0.2, SVG Export Plug-In . SVG Version: 6.00 Build 0)  -->
<svg version="1.1" id="Layer_1" xmlns="http://www.w3.org/2000/svg" xmlns:xlink="http://www.w3.org/1999/xlink" x="0px" y="0px"
	 viewBox="0 0 20 20" style="enable-background:new 0 0 20 20;" xml:space="preserve">
<style type="text/css">
	.st0{fill:#00CC00;}
	.st1{opacity:0.25;enable-background:new    ;}
	.st2{fill:#FFFFFF;}
</style>
<title>checkmark</title>
<g>
	<g id="Layer_1_1_">
		<g>
			<circle class="st0" cx="10" cy="10" r="10"/>
		</g>
		<g class="st1">
			<path d="M8.6,14.5c-0.2,0-0.4-0.1-0.5-0.2l-3-3c-0.3-0.3-0.3-0.8,0-1.1c0.3-0.3,0.8-0.3,1.1,0l2.4,2.4L14,6.3
				c0.3-0.3,0.7-0.3,1.1-0.1c0.3,0.3,0.4,0.7,0.1,1.1l-6,7C9,14.4,8.8,14.5,8.6,14.5C8.6,14.5,8.6,14.5,8.6,14.5z"/>
		</g>
		<g>
			<path class="st2" d="M8.4,14c-0.2,0-0.4-0.1-0.5-0.2l-3-3c-0.3-0.3-0.3-0.8,0-1.1c0.3-0.3,0.8-0.3,1.1,0l2.4,2.4l5.5-6.4
				c0.3-0.3,0.7-0.4,1.1-0.1C15.2,6,15.3,6.4,15,6.7l-6,7C8.9,13.9,8.7,14,8.4,14C8.4,14,8.4,14,8.4,14z"/>
		</g>
	</g>
</g>
</svg>
