<svg id="Layer_1" data-name="Layer 1" xmlns="http://www.w3.org/2000/svg" viewBox="0 0 20 48"><defs><style>.cls-1{fill:#fff;}</style></defs><title>keystone</title><path class="cls-1" d="M4.19,23h0M1.56,21.22h0m9.52-4.59h.16l.45,0a4.42,4.42,0,0,1,.89.24,4,4,0,0,1,.83.44,3.48,3.48,0,0,1,.69.64l0,0,0,0,0,0,0,.06,0,0h0l0,.05.06.1a3,3,0,0,1,.21.43,2.9,2.9,0,0,1,.2.94s0,.08,0,.12a1.2,1.2,0,0,1,0,.12s0,.09,0,.11v0a.37.37,0,0,1,0,.06,3.65,3.65,0,0,1-.13.54l-.09.26,0,.07q-.53-.29-1.08-.53l-.19-.08-.19-.08-.17-.07-.19-.08-.19-.08-.19-.07L12,20c-.51-.18-1-.34-1.56-.48A16.24,16.24,0,0,0,7.07,19H6.91l.14-.24a4.85,4.85,0,0,1,.83-1A4.08,4.08,0,0,1,9.12,17a4.49,4.49,0,0,1,.78-.23l.21,0,.22,0,.22,0h.53m.18-1.88h-.33l-.27,0-.32,0-.3.05-.29.06L9.47,15a5.87,5.87,0,0,0-1.06.42,5.31,5.31,0,0,0-.9.59,5.55,5.55,0,0,0-.71.7,5.89,5.89,0,0,0-.52.74,6.31,6.31,0,0,0-.36.72,6.64,6.64,0,0,0-.29.86l-.37,0a6.23,6.23,0,0,0-2,.6,4.53,4.53,0,0,0-1,.67,4.21,4.21,0,0,0-.43.45c-.07.08-.13.16-.19.25l0,.06,0,0,0,0,0,0,0,.08,0,.07,0,.08-.08.15c0,.1-.08.19-.12.29a3.61,3.61,0,0,0-.17.61,3.69,3.69,0,0,0,0,1.23,3.72,3.72,0,0,0,1.05,2.08,3.62,3.62,0,0,0,.44.37l.12.08,0,0,0,0,0,0,0,0,.06,0,.12.07a5.14,5.14,0,0,0,.92.38,7.83,7.83,0,0,0,1.79.3c.29,0,.58,0,.86,0l.43,0,.39,0,.21,0,.2,0L8.2,27,9,26.81c.52-.12,1-.27,1.54-.43a13.13,13.13,0,0,0,2.73-1.28,10.93,10.93,0,0,0-1.59-.9,10.8,10.8,0,0,1-4.42,1.39l-.37,0H6.54a4.18,4.18,0,0,1-.68-.05,3,3,0,0,1-1.2-.46,2.08,2.08,0,0,1-.43-.38A1.23,1.23,0,0,1,4,24.32a1.5,1.5,0,0,1,0-.79,1.57,1.57,0,0,1,.1-.32l.07-.14,0-.06,0,0h0l.05-.08h0v0l0-.06.11-.11a1.35,1.35,0,0,1,.3-.2,3.1,3.1,0,0,1,1-.26,7.57,7.57,0,0,1,1.25,0,13,13,0,0,1,2.66.41,10.79,10.79,0,0,1,5.7,3.1,2.4,2.4,0,0,1,.56,2,3.24,3.24,0,0,1-.73,1.45,3.51,3.51,0,0,1-1.24.93l-.17.07-.06,0-.12,0-.17,0-.19,0a5.84,5.84,0,0,1-.77.12,6.75,6.75,0,0,1-1.47,0l-.66-.12-.59-.16a7.11,7.11,0,0,1-1.62-.75l-.22-.15-.08-.05,0,0,0,0-.15-.12a1.1,1.1,0,0,0-1.45,1.66l.14.13,0,0,.05,0,.12.11.29.24a8.6,8.6,0,0,0,.85.6A9.42,9.42,0,0,0,10.46,33a8.93,8.93,0,0,0,2.06.21,8.23,8.23,0,0,0,1.17-.1l.3-.05.15,0,.08,0h.1l.13,0,.19-.05.33-.11a6.31,6.31,0,0,0,2.39-1.61,6.14,6.14,0,0,0,1.51-2.8A5.47,5.47,0,0,0,19,26.64a5.27,5.27,0,0,0-.51-1.79A5.55,5.55,0,0,0,18,24L17.91,24l-.06-.09,0,0-.05-.07-.05-.07-.11-.13v0l0,0,0,0-.07-.08-.15-.17-.14-.15-.29-.29c-.2-.19-.41-.37-.62-.55l-.14-.11h0c.06-.12.12-.24.18-.36s.11-.25.16-.38a5.53,5.53,0,0,0,.22-.78l0-.11,0-.12c0-.08,0-.15,0-.22s0-.14,0-.21,0-.14,0-.21a4.77,4.77,0,0,0-.65-2.36L16,17.2,16,17.12v0l0,0,0,0,0-.07-.06-.08-.07-.09-.06-.08a5.12,5.12,0,0,0-1.13-1,5.57,5.57,0,0,0-1.29-.63,5.78,5.78,0,0,0-1.33-.29,6.09,6.09,0,0,0-.61,0h0"/></svg>