<?xml version="1.0" encoding="utf-8"?>
<!-- Generator: Adobe Illustrator 21.0.2, SVG Export Plug-In . SVG Version: 6.00 Build 0)  -->
<svg version="1.1" id="Layer_1" xmlns="http://www.w3.org/2000/svg" xmlns:xlink="http://www.w3.org/1999/xlink" x="0px" y="0px"
	 viewBox="0 0 20 48" style="enable-background:new 0 0 20 48;" xml:space="preserve">
<style type="text/css">
	.st0{fill:#FFFFFF;}
</style>
<title>search</title>
<path class="st0" d="M17.6,30.8l-4.2-4.2c0.9-1,1.4-2.4,1.4-3.8c0-3.3-2.7-6-6-6s-6,2.7-6,6s2.7,6,6,6c1.4,0,2.7-0.5,3.7-1.3
	l4.2,4.2c0.1,0.1,0.3,0.2,0.4,0.2s0.3-0.1,0.4-0.2C17.9,31.4,17.9,31,17.6,30.8z M4,22.8C4,20.1,6.2,18,8.8,18s4.8,2.1,4.8,4.8
	s-2.1,4.8-4.8,4.8S4,25.4,4,22.8z"/>
</svg>
