<?xml version="1.0" encoding="utf-8"?>
<!-- Generator: Adobe Illustrator 21.1.0, SVG Export Plug-In . SVG Version: 6.00 Build 0)  -->
<svg version="1.1" id="Layer_1" xmlns="http://www.w3.org/2000/svg" xmlns:xlink="http://www.w3.org/1999/xlink" x="0px" y="0px"
	 viewBox="0 0 20 48" style="enable-background:new 0 0 20 48;" xml:space="preserve">
<style type="text/css">
	.st0{fill:#FFFFFF;}
</style>
<title>account</title>
<g>
	<path class="st0" d="M10,15.2c4.8,0,8.8,3.9,8.8,8.8s-3.9,8.8-8.8,8.8s-8.8-4-8.8-8.8S5.2,15.2,10,15.2 M10,14C4.5,14,0,18.5,0,24
		s4.5,10,10,10s10-4.5,10-10S15.5,14,10,14L10,14z"/>
</g>
<g>
	<path class="st0" d="M13.3,18c0-0.1,0.5,0,0.5,0.1c-0.1,1-0.2,2-0.1,3.6c0,0.1-0.5,0.1-0.5,0c-0.5-1.3-0.9-1.9-1.3-2.3
		c-0.5-0.5-1.1-0.7-2-0.7S8.4,19,8,19.4c-0.4,0.4-0.6,0.9-0.6,1.4c0,1.2,0.9,1.6,3.2,2.2c1.7,0.4,2.6,0.9,3.2,1.4
		c0.4,0.5,0.7,1,0.7,1.9c0,2-1.8,3.4-4,3.4c-1.9,0-2.9-0.9-3.3-0.9c-0.3,0-0.5,0.3-0.7,0.8c0,0.1-0.5,0-0.5,0c0-1.3,0-2.3-0.1-4
		c0-0.1,0.4-0.1,0.5-0.1C7,27,7.3,27.6,7.8,28.1c0.6,0.6,1.6,0.9,2.5,0.9s1.6-0.2,2-0.6s0.6-0.8,0.6-1.4c0-1.2-0.7-1.7-2.9-2.3
		c-2-0.5-2.8-0.9-3.4-1.5c-0.4-0.4-0.7-0.9-0.7-1.8c0-1.9,1.7-3.4,4-3.4c1.9,0,2.6,0.7,2.8,0.7C12.9,18.8,13.1,18.4,13.3,18z"/>
</g>
</svg>
