<?xml version="1.0" encoding="utf-8"?>
<!-- Generator: Adobe Illustrator 21.0.2, SVG Export Plug-In . SVG Version: 6.00 Build 0)  -->
<svg version="1.1" id="Layer_1" xmlns="http://www.w3.org/2000/svg" xmlns:xlink="http://www.w3.org/1999/xlink" x="0px" y="0px"
	 viewBox="0 0 50 54" style="enable-background:new 0 0 50 54;" xml:space="preserve">
<style type="text/css">
	.st0{fill:#BDBFC1;}
</style>
<path class="st0" d="M48.7,30.4h-5.3c0.2-1.1,0.3-2.2,0.3-3.4c0-6.5-3.4-12.2-8.4-15.6V1.7c0-0.5-0.4-0.9-0.8-0.9h-19
	c-0.5,0-0.9,0.4-0.9,0.9v9.8c-5,3.4-8.3,9-8.3,15.5c0,1.2,0.1,2.3,0.3,3.4H1.3c-0.5,0-0.9,0.4-0.9,0.9V54h8.9v-6.4h2.9V54h8.9v-8.7
	c1.3,0.3,2.6,0.4,3.9,0.4s2.6-0.2,3.9-0.4V54h8.9v-6.4h2.9V54h8.9V31.3C49.6,30.8,49.2,30.4,48.7,30.4z M29.2,12.6h2.9v3.6h-2.9
	V12.6z M29.2,18h2.9v3.7h-2.9V18z M22,6.2h2.6V3.5h0.9v2.6h2.6v1h-2.6v2.6h-0.9V7.1H22V6.2z M26.4,12.6v3.6h-2.9v-3.6H26.4z
	 M17.9,12.6h2.9v3.6h-2.9V12.6z M17.9,18h2.9v3.7h-2.9V18z M6.6,51.2L6.6,51.2H3.7v-3.6h2.9V51.2z M6.6,45.8L6.6,45.8H3.7v-3.6h2.9
	V45.8z M12.2,45.8H9.3v-3.6h2.9V45.8z M13.8,36.6h-2.6v2.6h-0.9v-2.6H7.7v-0.9h2.6v-2.6h0.9v2.6h2.6V36.6z M17.9,51.2H15v-3.6h2.9
	V51.2z M17.9,45.8H15v-3.6h2.9V45.8z M28.9,31.3v12.9c-1.3,0.3-2.6,0.5-3.9,0.5s-2.6-0.2-3.9-0.5V31.3c0-0.5-0.4-0.9-0.9-0.9H7.6
	c-0.2-1.1-0.3-2.2-0.3-3.4c0-5.9,2.9-11.1,7.3-14.3v11.7h8.9V18h2.9v6.4h8.9V12.6c4.5,3.2,7.4,8.4,7.4,14.4c0,1.2-0.1,2.3-0.3,3.4
	H29.8C29.3,30.4,28.9,30.8,28.9,31.3z M35,51.2h-2.9v-3.6H35V51.2z M35,45.8h-2.9v-3.6H35V45.8z M40.7,45.8h-2.9v-3.6h2.9V45.8z
	 M42.3,36.6h-2.6v2.6h-0.9v-2.6h-2.6v-0.9h2.6v-2.6h0.9v2.6h2.6V36.6z M46.3,51.2h-2.9v-3.6h2.9V51.2z M46.3,45.8h-2.9v-3.6h2.9
	V45.8z"/>
</svg>
