<?xml version="1.0" encoding="utf-8"?>
<!-- Generator: Adobe Illustrator 21.0.2, SVG Export Plug-In . SVG Version: 6.00 Build 0)  -->
<svg version="1.1" xmlns="http://www.w3.org/2000/svg" xmlns:xlink="http://www.w3.org/1999/xlink" x="0px" y="0px"
	 viewBox="0 0 50 54" style="enable-background:new 0 0 50 54;" xml:space="preserve">
<style type="text/css">
	.st0{fill:none;stroke:#201042;stroke-miterlimit:10;}
	.st1{fill:#FFFFFF;}
	.st2{fill:#201042;}
</style>
<g id="Layer_2">
	<circle class="st0" cx="25" cy="27" r="18.2"/>
	<rect x="15.3" y="2" class="st1" width="19.3" height="22.4"/>
	<rect x="1.1" y="31.3" class="st1" width="19.3" height="22.4"/>
	<rect x="29.6" y="31" class="st1" width="19.3" height="22.4"/>
</g>
<g id="Layer_1">
	<g>
		<path class="st2" d="M34.5,0.8h-19c-0.5,0-0.9,0.4-0.9,0.9v22.7h8.9V18h2.9v6.4h8.9V1.7C35.3,1.2,34.9,0.8,34.5,0.8z M20.8,21.7
			h-2.9V18h2.9V21.7z M20.8,16.2h-2.9v-3.6h2.9V16.2z M26.4,16.2h-2.9v-3.6h2.9V16.2z M28.1,7.1h-2.6v2.6h-0.9V7.1H22V6.2h2.6V3.5
			h0.9v2.6h2.6V7.1z M32.1,21.7h-2.9V18h2.9V21.7z M32.1,16.2h-2.9v-3.6h2.9V16.2z"/>
		<g>
			<path class="st2" d="M20.2,30.4H1.3c-0.5,0-0.9,0.4-0.9,0.9V54h8.9v-6.4h2.9V54h8.9V31.3C21.1,30.8,20.7,30.4,20.2,30.4z
				 M6.5,51.2H3.7v-3.6h2.9v3.6H6.5z M6.5,45.8H3.7v-3.6h2.9v3.6H6.5z M12.2,45.8H9.3v-3.6h2.9C12.2,42.2,12.2,45.8,12.2,45.8z
				 M13.8,36.6h-2.6v2.6h-0.9v-2.6H7.7v-0.9h2.6v-2.6h0.9v2.6h2.6C13.8,35.7,13.8,36.6,13.8,36.6z M17.9,51.2H15v-3.6h2.9V51.2z
				 M17.9,45.8H15v-3.6h2.9V45.8z"/>
			<path class="st2" d="M48.7,30.4H29.8c-0.5,0-0.9,0.4-0.9,0.9V54h8.9v-6.4h2.9V54h8.9V31.3C49.6,30.8,49.2,30.4,48.7,30.4z
				 M35,51.2h-2.9v-3.6H35V51.2z M35,45.8h-2.9v-3.6H35V45.8z M40.7,45.8h-2.9v-3.6h2.9V45.8z M42.3,36.6h-2.6v2.6h-0.9v-2.6h-2.6
				v-0.9h2.6v-2.6h0.9v2.6h2.6V36.6z M46.3,51.2h-2.9v-3.6h2.9V51.2z M46.3,45.8h-2.9v-3.6h2.9V45.8z"/>
		</g>
	</g>
</g>
</svg>
