<?xml version="1.0" encoding="utf-8"?>
<!-- Generator: Adobe Illustrator 21.0.2, SVG Export Plug-In . SVG Version: 6.00 Build 0)  -->
<svg version="1.1" id="Layer_1" xmlns="http://www.w3.org/2000/svg" xmlns:xlink="http://www.w3.org/1999/xlink" x="0px" y="0px"
	 viewBox="0 0 50 54" style="enable-background:new 0 0 50 54;" xml:space="preserve">
<style type="text/css">
	.st0{fill:#201042;}
</style>
<path class="st0" d="M41.1,14H9c-0.8,0-1.5,0.7-1.5,1.5V54h15.1V43.2h4.9V54h15.1V15.5C42.6,14.7,41.9,14,41.1,14z M17.9,49.4h-4.9
	v-6.2h4.9V49.4z M17.9,40.1h-4.9v-6.2h4.9V40.1z M27.4,40.1h-4.9v-6.2h4.9V40.1z M30.3,24.6h-4.5v4.5h-1.5v-4.5h-4.5V23h4.5v-4.5
	h1.5V23h4.5V24.6z M37.1,49.4h-4.9v-6.2h4.9V49.4z M37.1,40.1h-4.9v-6.2h4.9V40.1z"/>
</svg>
