<?xml version="1.0" encoding="utf-8"?>
<!-- Generator: Adobe Illustrator 21.0.2, SVG Export Plug-In . SVG Version: 6.00 Build 0)  -->
<svg version="1.1" id="Layer_1" xmlns="http://www.w3.org/2000/svg" xmlns:xlink="http://www.w3.org/1999/xlink" x="0px" y="0px"
	 viewBox="0 0 50 54" style="enable-background:new 0 0 50 54;" xml:space="preserve">
<style type="text/css">
	.st0{fill:#201042;}
</style>
<g>
	<path class="st0" d="M46.7,51c-2-1.1-13.5-6.3-13.5-6.3s-1.5-2.2-1-3.4L31,40.7l-0.4-3.5c0,0,1.3-1.7,2-5.1c0,0,0.7,0.5,1.3-2.1
		c0.5-2.2,0.6-3.4,0-3.5c2.9-7.2-1.7-10.2-1.7-10.2c-1.9-4.8-10-4.4-12.6-1.4c-2.7,3.1-4.4,1.9-4.4,1.9c-0.6,4-0.1,7.1,0.9,9.6
		c0,0.1,0,0.2,0,0.2c-1.2-0.4-1.1,0.9-0.5,3.5s1.3,2.1,1.3,2.1c0.8,3.4,2,5.1,2,5.1l-0.4,3.5l-1.3,0.5c0.5,1.2-1,3.4-1,3.4
		S5.4,49.9,3.3,51c-2,1.1-1.8,3-1.8,3H25h23.5C48.5,54,48.8,52.1,46.7,51z"/>
</g>
</svg>
