<?xml version="1.0" encoding="utf-8"?>
<!-- Generator: Adobe Illustrator 21.1.0, SVG Export Plug-In . SVG Version: 6.00 Build 0)  -->
<svg version="1.1" id="Layer_1" xmlns="http://www.w3.org/2000/svg" xmlns:xlink="http://www.w3.org/1999/xlink" x="0px" y="0px"
	 viewBox="0 0 200 67" style="enable-background:new 0 0 200 67;" xml:space="preserve">
<style type="text/css">
	.st0{fill:#201042;}
</style>
<path class="st0" d="M187.5,61.5c-4.5,0-8.2-3.7-8.2-8.2l0-11.3c0-6-2.3-11.7-6.5-15.9c-4.3-4.2-9.9-6.5-15.9-6.5h-1.4
	c-6,0-11.7,2.3-15.9,6.5c-4.3,4.3-6.6,9.9-6.6,15.9v2.2c0,6,2.4,11.6,6.6,15.9c4.2,4.2,9.9,6.5,15.9,6.5h1.4c5.6,0,11-2.1,15.2-5.9
	l2.7-2.4l2.1,2.9c0.5,0.6,1,1.3,1.6,1.8c2.5,2.3,5.7,3.6,9,3.6c0.3,0,0.5-0.2,0.5-0.5v-4C188,61.7,187.8,61.5,187.5,61.5
	 M174.2,41.9v2.2c0,9.6-7.8,17.4-17.4,17.4h-1.4c-9.6,0-17.4-7.8-17.4-17.4v-2.2c0-9.6,7.8-17.4,17.4-17.4h1.4
	C166.4,24.6,174.2,32.4,174.2,41.9"/>
<path class="st0" d="M134.7,19.5c-5.9,0-11.6,2.3-15.9,6.5c-4.2,4.2-6.5,9.9-6.5,15.9v19.5c-4.3-0.3-7.7-3.8-7.7-8.2l0-11.3
	c0-6-2.3-11.7-6.5-15.9c-4.3-4.2-9.9-6.5-15.9-6.5h-1.4c-6,0-11.7,2.3-15.9,6.5c-4.3,4.3-6.6,9.9-6.6,15.9v2.2
	c0,6,2.4,11.6,6.6,15.9c4.2,4.2,9.9,6.5,15.9,6.5h1.4c5.6,0,11-2.1,15.2-5.9l2.7-2.4l2.1,2.9c0.5,0.6,1,1.3,1.6,1.8
	c2.5,2.3,5.7,3.6,9,3.6h4.1c0.3,0,0.5-0.2,0.5-0.5V41.9c0-9.6,7.8-17.4,17.4-17.4c0.3,0,0.5-0.2,0.5-0.5V20
	C135.2,19.7,135,19.5,134.7,19.5 M99.5,44.1c0,9.6-7.8,17.4-17.4,17.4h-1.4c-9.6,0-17.4-7.8-17.4-17.4v-2.2
	c0-9.6,7.8-17.4,17.4-17.4h1.4c9.6,0,17.4,7.8,17.4,17.4V44.1z"/>
<path class="st0" d="M22.5,66.5c-6,0-11.7-2.3-15.8-6.6C2.3,55.7,0,50,0,44v-2.1c0-6,2.3-11.6,6.6-15.9c4.1-4.2,9.8-6.5,15.9-6.5
	h1.4c6.1,0,11.7,2.3,15.9,6.5c2.1,2.1,3.8,4.7,5,7.5c0.1,0.2,0.1,0.3,0,0.5c-0.1,0.2-0.2,0.3-0.4,0.3l-4,1.1c-0.1,0-0.1,0-0.2,0
	c-0.2,0-0.4-0.1-0.6-0.4c-2.7-6.2-9-10.4-15.8-10.4h-1.4c-9.3,0-17.2,8-17.2,17.4v1.8c0,9.4,7.9,17.4,17.2,17.4h1.4
	c6.5,0,12.5-3.8,15.4-9.6c0.1-0.3,0.4-0.3,0.6-0.3c0.1,0,0.1,0,0.2,0l4,1.2c0.2,0.1,0.3,0.2,0.4,0.3c0.1,0.2,0.1,0.3,0,0.5
	c-1,2.4-2.6,4.7-4.5,6.6c-4.3,4.3-9.9,6.6-15.9,6.6H22.5z"/>
<path class="st0" d="M53.2,0.5h-4.1c-0.3,0-0.6,0.3-0.6,0.6v64.8c0,0.3,0.3,0.6,0.6,0.6h4.1c0.3,0,0.6-0.3,0.6-0.6V1.1
	C53.8,0.7,53.6,0.5,53.2,0.5"/>
<g>
	<path class="st0" d="M193.7,61.7v0.7h-1.4v3.7h-0.9v-3.7H190v-0.7H193.7z M198.6,66.2l-0.2-2.6c0-0.3,0-0.8,0-1.2h0
		c-0.1,0.4-0.2,0.9-0.4,1.3l-0.8,2.5h-0.9l-0.8-2.5c-0.1-0.3-0.2-0.9-0.3-1.3h0c0,0.4,0,0.8,0,1.2l-0.2,2.6H194l0.3-4.5h1.3l0.8,2.2
		c0.1,0.3,0.2,0.7,0.3,1.1h0c0.1-0.4,0.2-0.8,0.3-1.1l0.8-2.2h1.3l0.3,4.5H198.6z"/>
</g>
</svg>
